<svg
      width="111"
      height="12"
      viewBox="0 0 111 12"
      fill="none"
      xmlns="http://www.w3.org/2000/svg"
    >
      <path
        d="M15.0173 1.38094C15.0173 4.55122 14.3632 6.8078 13.0688 8.09183C12.0824 9.07129 11.013 9.17166 10.6011 9.16474L9.91236 9.19243L8.04337 6.94624C8.67327 6.49285 9.05051 5.74527 9.41391 5.01846C9.53505 4.77965 9.65275 4.5443 9.78773 4.30549L11.9994 0.00346438H8.53143L7.21969 2.57844L6.97051 3.07337C6.66248 3.68943 6.1952 4.6239 5.88717 4.6239H3.29142V0.00346438H0V11.9924H3.29142V7.37193H4.4405L8.34105 11.9924H12.1516H12.3177C12.5427 11.9924 17.8 11.8851 18.2776 2.74804H21.9531V11.9924H25.2445V0H15.0208V1.38094H15.0173Z"
        fill="black"
      ></path>
      <path
        d="M99.8459 1.38183C99.8459 9.01681 96.911 9.25216 96.8799 9.25216L96.8799 9.27293L96.8799 12.0002H97.1428C97.3678 12.0002 102.625 11.8929 103.103 2.75585H106.782V12.0002H110.073V0.0078125H99.8494V1.38183H99.8459Z"
        fill="black"
      ></path>
      <path
        d="M63.3953 0.0078125H52.7977V1.38183C52.7977 8.9995 49.5651 9.25216 49.5305 9.25216L49.1221 9.27293L49.7244 12.0002H64.6828V9.25216H63.3987V0.0078125H63.3953ZM60.1039 9.25216H54.2305C55.2377 7.66702 55.8157 5.48658 55.961 2.75585H60.1039V9.25216Z"
        fill="black"
      ></path>
      <path
        d="M74.0271 6.71178L71.511 0.0078125H66.5029V11.9967H69.7943V4.24062L72.7016 11.9967H75.3492L78.2599 4.24062V11.9967H81.5514V0.0078125H76.5433L74.0271 6.71178Z"
        fill="black"
      ></path>
      <path
        d="M86.9682 6.7637V0.0078125H83.6768V11.9967H85.6219L92.3778 5.24085V11.9967H95.6692V0.0078125H93.7275L86.9682 6.7637Z"
        fill="black"
      ></path>
      <path
        d="M51.0818 0.0078125H47.5722L44.5958 8.13425L41.5709 0.0078125H38.0269L41.2317 8.40075H44.4989L43.3602 11.5122L43.118 11.9967H46.6413L46.7243 11.7683C47.6761 9.17948 50.5695 1.29877 50.8948 0.478515L51.0818 0.0078125Z"
        fill="black"
      ></path>
      <path
        d="M35.4684 0.336612L35.3404 0.0078125H30.2527L26.0406 11.5122L25.7983 11.9967H29.3216L30.0104 10.1243H35.5895L36.2783 11.9967H39.2409H39.8016L39.5593 11.5122L35.4684 0.336612ZM32.7965 2.55165C33.1599 3.53112 33.6168 4.76669 34.1048 6.09572H34.1013L34.572 7.37629H31.021L31.4917 6.09572H31.4882C31.9797 4.76669 32.4365 3.52766 32.7965 2.55165Z"
        fill="black"
      ></path>
    </svg>